# xmcd
#
# Track frame offsets:
#	150
#	16220
#	32143
#	40227
#	60909
#	70907
#	84868
#	95875
#	108120
#	123831
#	136230
#	146014
#	157282
#	168221
#	178130
#	189202
#	201427
#	211147
#	222412
#	234185
#
# Disc length: 3293
#
# Revision: 1
# Processed by: cddbd v1.5.1PL0 Copyright (c) Steve Scherf et al.
# Submitted via: dBpowerAMP V4.0
# Normalized: r0:DSETVAR1,TDELIM( - )
#
DISCID=130cdb14
DTITLE=Various Artist - Country Greats CD13
DYEAR=1900
DGENRE=
TTITLE0=Randy Van Warmer - Just When I Needed You Most
TTITLE1=Johnny Lee - Lookin' For Love
TTITLE2=Roger Miller - In The Summertime (You Don't Want My Love)
TTITLE3=Liv Maessen - LIttle Green Apples
TTITLE4=Johnny Cash - Get Rhythm
TTITLE5=Barbara Fairchild - Teddy Bear Song
TTITLE6=Patsy Cline - Stop The World (And Let Me Off)
TTITLE7=Merle Haggard - The Bottle Let Me Down
TTITLE8=Don Fardon - A Good Woman's Love
TTITLE9=Johnny Bond - I'll Step Aside
TTITLE10=Waylon Jennings - White Lightning
TTITLE11=Kitty Wells - It Wasn't God Who Made Honky
TTITLE12=Jack Greene - What Locks The Door
TTITLE13=Don Williams - Take My Hand For A While
TTITLE14=Faron Young - Cryin' Time
TTITLE15=Jean Shepherd - Then He Touched Me
TTITLE16=Denis Olson - Truck Drivin' Outlaw
TTITLE17=Lee Conway - Movin' On
TTITLE18=Roy Acuff - Freight Train Blues
TTITLE19=Jimmy Wakely - One Has My Name (The Other Has My Heart)
EXTD=
EXTT0=
EXTT1=
EXTT2=
EXTT3=
EXTT4=
EXTT5=
EXTT6=
EXTT7=
EXTT8=
EXTT9=
EXTT10=
EXTT11=
EXTT12=
EXTT13=
EXTT14=
EXTT15=
EXTT16=
EXTT17=
EXTT18=
EXTT19=
PLAYORDER=
